# This file uses centimeters as units for non-parametric coordinates.

mtllib Bill_Model.mtl
g default
v -17.756384 190.604919 -4.635732
v -16.756384 190.604919 -4.635732
v -17.756384 243.007095 -4.635732
v -16.756384 243.007095 -4.635732
v -17.756384 243.007095 -5.635732
v -16.756384 243.007095 -5.635732
v -17.756384 190.604919 -5.635732
v -16.756384 190.604919 -5.635732
v -7.975497 178.311447 -4.933820
v -6.975497 178.311447 -4.933820
v -7.975497 230.713608 -4.933820
v -6.975497 230.713608 -4.933820
v -7.975497 230.713608 -5.933820
v -6.975497 230.713608 -5.933820
v -7.975497 178.311447 -5.933820
v -6.975497 178.311447 -5.933820
v -25.000000 0.000000 25.000000
v 25.000000 0.000000 25.000000
v -25.000000 200.000000 25.000000
v 25.000000 200.000000 25.000000
v -25.000000 200.000000 -25.000000
v 25.000000 200.000000 -25.000000
v -25.000000 0.000000 -25.000000
v 25.000000 0.000000 -25.000000
v -0.290970 199.137238 10.852336
v 21.413702 199.137238 10.852336
v -0.290970 207.777802 10.852336
v 21.413702 207.777802 10.852336
v -0.290970 207.777802 -10.852336
v 21.413702 207.777802 -10.852336
v -0.290970 199.137238 -10.852336
v 21.413702 199.137238 -10.852336
vt 0.452165 0.578223
vt 0.458576 0.578223
vt 0.452165 0.584634
vt 0.458576 0.584634
vt 0.452165 0.591044
vt 0.458576 0.591044
vt 0.452165 0.597454
vt 0.458576 0.597454
vt 0.452165 0.603864
vt 0.458576 0.603864
vt 0.464986 0.578223
vt 0.464986 0.584634
vt 0.445755 0.578223
vt 0.445755 0.584634
vt 0.452165 0.578223
vt 0.458576 0.578223
vt 0.452165 0.584634
vt 0.458576 0.584634
vt 0.452165 0.591044
vt 0.458576 0.591044
vt 0.452165 0.597454
vt 0.458576 0.597454
vt 0.452165 0.603864
vt 0.458576 0.603864
vt 0.464986 0.578223
vt 0.464986 0.584634
vt 0.445755 0.578223
vt 0.445755 0.584634
vt 0.768345 0.990487
vt 0.581590 0.990487
vt 0.768345 0.403812
vt 0.581590 0.403812
vt 0.023661 0.882721
vt 0.067108 0.882721
vt 0.023661 0.940480
vt 0.067108 0.940480
vt 0.299142 0.234195
vt 0.495015 0.232968
vt 0.304115 0.895040
vt 0.499989 0.893813
vt 0.021584 0.883134
vt 0.067534 0.883134
vt 0.021584 0.940893
vt 0.067534 0.940893
vt 0.996596 0.704490
vt 0.803404 0.704490
vt 0.996596 0.015648
vt 0.803404 0.015648
vt 0.200038 0.000804
vt 0.200038 0.692723
vt 0.003534 0.000804
vt 0.003534 0.692723
vt 0.485806 0.443223
vt 0.514194 0.443223
vt 0.485806 0.471612
vt 0.514194 0.471612
vt 0.485806 0.500000
vt 0.514194 0.500000
vt 0.485806 0.528388
vt 0.514194 0.528388
vt 0.485806 0.556777
vt 0.514194 0.556777
vt 0.542582 0.443223
vt 0.542582 0.471612
vt 0.457418 0.443223
vt 0.457418 0.471612
vn 0.000000 0.000000 1.000000
vn 0.000000 0.000000 1.000000
vn 0.000000 0.000000 1.000000
vn 0.000000 0.000000 1.000000
vn 0.000000 1.000000 0.000000
vn 0.000000 1.000000 0.000000
vn 0.000000 1.000000 0.000000
vn 0.000000 1.000000 0.000000
vn 0.000000 0.000000 -1.000000
vn 0.000000 0.000000 -1.000000
vn 0.000000 0.000000 -1.000000
vn 0.000000 0.000000 -1.000000
vn 0.000000 -1.000000 0.000000
vn 0.000000 -1.000000 0.000000
vn 0.000000 -1.000000 0.000000
vn 0.000000 -1.000000 0.000000
vn 1.000000 0.000000 0.000000
vn 1.000000 0.000000 0.000000
vn 1.000000 0.000000 0.000000
vn 1.000000 0.000000 0.000000
vn -1.000000 0.000000 0.000000
vn -1.000000 0.000000 0.000000
vn -1.000000 0.000000 0.000000
vn -1.000000 0.000000 0.000000
vn 0.000000 0.000000 1.000000
vn 0.000000 0.000000 1.000000
vn 0.000000 0.000000 1.000000
vn 0.000000 0.000000 1.000000
vn 0.000000 1.000000 0.000000
vn 0.000000 1.000000 0.000000
vn 0.000000 1.000000 0.000000
vn 0.000000 1.000000 0.000000
vn 0.000000 0.000000 -1.000000
vn 0.000000 0.000000 -1.000000
vn 0.000000 0.000000 -1.000000
vn 0.000000 0.000000 -1.000000
vn 0.000000 -1.000000 0.000000
vn 0.000000 -1.000000 0.000000
vn 0.000000 -1.000000 0.000000
vn 0.000000 -1.000000 0.000000
vn 1.000000 0.000000 0.000000
vn 1.000000 0.000000 0.000000
vn 1.000000 0.000000 0.000000
vn 1.000000 0.000000 0.000000
vn -1.000000 0.000000 0.000000
vn -1.000000 0.000000 0.000000
vn -1.000000 0.000000 0.000000
vn -1.000000 0.000000 0.000000
vn 0.000000 0.000000 1.000000
vn 0.000000 0.000000 1.000000
vn 0.000000 0.000000 1.000000
vn 0.000000 0.000000 1.000000
vn 0.000000 1.000000 0.000000
vn 0.000000 1.000000 0.000000
vn 0.000000 1.000000 0.000000
vn 0.000000 1.000000 0.000000
vn 0.000000 0.000000 -1.000000
vn 0.000000 0.000000 -1.000000
vn 0.000000 0.000000 -1.000000
vn 0.000000 0.000000 -1.000000
vn 0.000000 -1.000000 0.000000
vn 0.000000 -1.000000 0.000000
vn 0.000000 -1.000000 0.000000
vn 0.000000 -1.000000 0.000000
vn 1.000000 0.000000 0.000000
vn 1.000000 0.000000 0.000000
vn 1.000000 0.000000 0.000000
vn 1.000000 0.000000 0.000000
vn -1.000000 0.000000 0.000000
vn -1.000000 0.000000 0.000000
vn -1.000000 0.000000 0.000000
vn -1.000000 0.000000 0.000000
vn 0.000000 0.000000 1.000000
vn 0.000000 0.000000 1.000000
vn 0.000000 0.000000 1.000000
vn 0.000000 0.000000 1.000000
vn 0.000000 1.000000 0.000000
vn 0.000000 1.000000 0.000000
vn 0.000000 1.000000 0.000000
vn 0.000000 1.000000 0.000000
vn 0.000000 0.000000 -1.000000
vn 0.000000 0.000000 -1.000000
vn 0.000000 0.000000 -1.000000
vn 0.000000 0.000000 -1.000000
vn 0.000000 -1.000000 0.000000
vn 0.000000 -1.000000 0.000000
vn 0.000000 -1.000000 0.000000
vn 0.000000 -1.000000 0.000000
vn 1.000000 0.000000 0.000000
vn 1.000000 0.000000 0.000000
vn 1.000000 0.000000 0.000000
vn 1.000000 0.000000 0.000000
vn -1.000000 0.000000 0.000000
vn -1.000000 0.000000 0.000000
vn -1.000000 0.000000 0.000000
vn -1.000000 0.000000 0.000000
s 1
g Bill
usemtl lambert2SG
f 1/1/1 2/2/2 3/3/3
f 3/3/3 2/2/2 4/4/4
s 2
f 3/3/5 4/4/6 5/5/7
f 5/5/7 4/4/6 6/6/8
s 3
f 5/5/9 6/6/10 7/7/11
f 7/7/11 6/6/10 8/8/12
s 4
f 7/7/13 8/8/14 1/9/15
f 1/9/15 8/8/14 2/10/16
s 5
f 2/2/17 8/11/18 4/4/19
f 4/4/19 8/11/18 6/12/20
s 6
f 7/13/21 1/1/22 5/14/23
f 5/14/23 1/1/22 3/3/24
s 7
f 9/15/25 10/16/26 11/17/27
f 11/17/27 10/16/26 12/18/28
s 8
f 11/17/29 12/18/30 13/19/31
f 13/19/31 12/18/30 14/20/32
s 9
f 13/19/33 14/20/34 15/21/35
f 15/21/35 14/20/34 16/22/36
s 10
f 15/21/37 16/22/38 9/23/39
f 9/23/39 16/22/38 10/24/40
s 11
f 10/16/41 16/25/42 12/18/43
f 12/18/43 16/25/42 14/26/44
s 12
f 15/27/45 9/15/46 13/28/47
f 13/28/47 9/15/46 11/17/48
s 13
f 20/29/49 19/30/50 18/31/51
f 18/31/51 19/30/50 17/32/52
s 14
f 19/33/53 20/34/54 21/35/55
f 21/35/55 20/34/54 22/36/56
s 15
f 21/37/57 22/38/58 23/39/59
f 23/39/59 22/38/58 24/40/60
s 16
f 23/41/61 24/42/62 17/43/63
f 17/43/63 24/42/62 18/44/64
s 17
f 22/45/65 20/46/66 24/47/67
f 24/47/67 20/46/66 18/48/68
s 18
f 17/49/69 19/50/70 23/51/71
f 23/51/71 19/50/70 21/52/72
s 19
f 25/53/73 26/54/74 27/55/75
f 27/55/75 26/54/74 28/56/76
s 20
f 27/55/77 28/56/78 29/57/79
f 29/57/79 28/56/78 30/58/80
s 21
f 29/57/81 30/58/82 31/59/83
f 31/59/83 30/58/82 32/60/84
s 22
f 31/59/85 32/60/86 25/61/87
f 25/61/87 32/60/86 26/62/88
s 23
f 26/54/89 32/63/90 28/56/91
f 28/56/91 32/63/90 30/64/92
s 24
f 31/65/93 25/53/94 29/66/95
f 29/66/95 25/53/94 27/55/96
