# This file uses centimeters as units for non-parametric coordinates.

mtllib BattleshipMissile_Model.mtl
g default
v 2.588546 2.847249 -4.483490
v -2.588543 2.847249 -4.483490
v -5.177088 2.847249 -0.000001
v -2.588545 2.847249 4.483490
v 2.588544 2.847249 4.483490
v 5.177088 2.847249 -0.000000
v 2.700475 8.751404 -4.677358
v -2.700473 8.751404 -4.677359
v -5.400948 8.751404 -0.000001
v -2.700474 8.751404 4.677358
v 2.700474 8.751404 4.677358
v 5.400948 8.751404 -0.000000
v 0.000000 3.905378 0.000000
v 0.000000 8.751404 -0.000000
v -0.000001 -0.829871 6.359749
v -0.000000 8.751404 4.677358
v 5.507703 -0.829871 3.179874
v 4.050711 8.751404 2.338679
v -5.507704 -0.829871 3.179873
v -4.050711 8.751404 2.338678
v -5.507702 -0.829871 -3.179875
v -4.050710 8.751404 -2.338680
v 0.000001 -0.829871 -6.359749
v 0.000001 8.751404 -4.677358
v 5.507704 -0.829871 -3.179873
v 4.050711 8.751404 -2.338679
v 3.049989 10.632164 -5.282732
v -3.049986 10.632164 -5.282733
v -6.099974 10.632164 -0.000001
v -3.049988 10.632164 5.282732
v 3.049987 10.632164 5.282733
v 6.099974 10.632164 0.000000
v 0.000001 15.953653 -3.947611
v -3.418742 15.953653 -0.000001
v -0.000000 15.953653 3.947610
v 3.418742 15.953653 -0.000000
v 0.000000 10.632164 0.000000
v 0.000000 18.144302 1.229826
v 0.000000 18.144302 -1.235521
v -3.418719 15.953653 -1.235524
v -3.418719 15.953653 1.229829
v 3.418719 15.953653 -1.235524
v 3.418719 15.953653 1.229829
v 1.219414 6.635968 -1.124644
v 1.219414 6.635968 1.124644
v 3.167355 6.635968 0.000000
v 1.219414 25.256260 -1.124644
v 1.219414 25.256260 1.124644
v 3.167355 25.256260 0.000000
v -1.219414 6.635968 -1.124644
v -1.219414 6.635968 1.124644
v -3.167355 6.635968 0.000000
v -1.219414 25.256260 -1.124644
v -1.219414 25.256260 1.124644
v -3.167355 25.256260 0.000000
vt 0.428516 0.014998
vt 0.312330 0.014998
vt 0.254237 0.115618
vt 0.312330 0.216238
vt 0.428516 0.216238
vt 0.486609 0.115618
vt 0.325629 0.234091
vt 0.378650 0.234091
vt 0.431672 0.234091
vt 0.484693 0.234091
vt 0.537714 0.234091
vt 0.590735 0.234091
vt 0.643757 0.234091
vt 0.325629 0.461259
vt 0.378650 0.461259
vt 0.431672 0.461259
vt 0.484693 0.461259
vt 0.537714 0.461259
vt 0.590735 0.461259
vt 0.643757 0.461259
vt 0.694106 0.013842
vt 0.582498 0.013842
vt 0.526695 0.110497
vt 0.582498 0.207151
vt 0.694106 0.207151
vt 0.749909 0.110497
vt 0.370423 0.110970
vt 0.638302 0.106032
vt 0.511204 0.234091
vt 0.370423 0.216238
vt 0.638302 0.013842
vt 0.511204 0.461259
vt 0.564225 0.234091
vt 0.457562 0.165928
vt 0.722007 0.062169
vt 0.564225 0.461259
vt 0.458182 0.234091
vt 0.283283 0.165928
vt 0.554597 0.062169
vt 0.458182 0.461259
vt 0.405161 0.234091
vt 0.283283 0.065308
vt 0.554597 0.158824
vt 0.405161 0.461259
vt 0.352140 0.234091
vt 0.370423 0.014998
vt 0.638302 0.207151
vt 0.352140 0.461259
vt 0.617246 0.234091
vt 0.457562 0.065308
vt 0.722007 0.158824
vt 0.617246 0.461259
vt 0.361566 0.668305
vt 0.403233 0.668305
vt 0.382399 0.810143
vt 0.413649 0.810143
vt 0.444899 0.668305
vt 0.444899 0.810143
vt 0.486566 0.668305
vt 0.507400 0.810143
vt 0.528233 0.668305
vt 0.538650 0.810143
vt 0.569900 0.668305
vt 0.569900 0.810143
vt 0.611566 0.668305
vt 0.611566 0.810143
vt 0.425559 0.471936
vt 0.532587 0.471936
vt 0.479073 0.560344
vt 0.372045 0.564625
vt 0.425559 0.657315
vt 0.532587 0.657315
vt 0.586101 0.564625
vt 0.447763 0.988102
vt 0.425871 0.950184
vt 0.491548 0.908763
vt 0.535332 0.836429
vt 0.557224 0.874347
vt 0.491548 0.908763
vt 0.476149 0.810143
vt 0.491548 0.908763
vt 0.425871 0.874347
vt 0.447763 0.836429
vt 0.590733 0.810143
vt 0.491548 0.908763
vt 0.557224 0.950184
vt 0.535332 0.988102
vt 0.742237 0.241916
vt 0.809124 0.241922
vt 0.742192 0.795631
vt 0.809080 0.795636
vt 0.876011 0.241927
vt 0.675305 0.795626
vt 0.179429 0.207515
vt 0.115954 0.797221
vt 0.108306 0.208439
vt 0.044830 0.798145
vt 0.250553 0.206591
vt 0.187077 0.796297
vt 0.037182 0.209363
vt 0.143067 0.146382
vt 0.258201 0.795373
vt 0.152315 0.858354
vt 0.675349 0.241911
vt 0.775685 0.183993
vt 0.875967 0.795642
vt 0.775631 0.853560
vn 0.382626 0.137756 -0.913576
vn 0.000000 0.172946 -0.984931
vn 0.000000 0.046631 -0.998912
vn -0.599867 0.137756 -0.788152
vn -0.852976 0.172946 -0.492466
vn -0.865083 0.046631 -0.499456
vn -0.982493 0.137756 0.125424
vn -0.852976 0.172946 0.492466
vn -0.865083 0.046631 0.499456
vn -0.382626 0.137756 0.913576
vn 0.000000 0.172946 0.984931
vn 0.000000 0.046631 0.998912
vn 0.599867 0.137756 0.788152
vn 0.852976 0.172946 0.492466
vn 0.865083 0.046631 0.499456
vn 0.982493 0.137756 -0.125424
vn 0.852976 0.172946 -0.492465
vn 0.865083 0.046631 -0.499456
vn 0.000000 -1.000000 -0.000000
vn 0.000000 -0.802087 0.597207
vn -0.100124 -0.979746 0.173419
vn 0.200247 -0.979745 -0.000000
vn 0.517196 -0.802087 0.298603
vn 0.100124 -0.979745 -0.173419
vn 0.517196 -0.802087 -0.298603
vn -0.100124 -0.979745 -0.173419
vn -0.000000 -0.802088 -0.597207
vn -0.200247 -0.979745 0.000000
vn -0.517196 -0.802087 -0.298603
vn -0.517196 -0.802087 0.298603
vn 0.000000 1.000000 0.000000
vn 0.000000 1.000000 -0.000000
vn 0.000000 1.000000 0.000000
vn 0.000000 1.000000 -0.000000
vn 0.000000 1.000000 0.000000
vn 0.000000 1.000000 0.000000
vn 0.000000 1.000000 0.000000
vn 0.000000 1.000000 0.000000
vn 0.000000 1.000000 0.000000
vn 0.000000 1.000000 0.000000
vn 0.000000 1.000000 0.000000
vn 0.000000 1.000000 0.000000
vn 0.000000 1.000000 0.000000
vn 0.382626 0.137756 0.913576
vn 0.000000 -0.032818 0.999461
vn 0.982493 0.137756 0.125424
vn -0.599867 0.137756 0.788151
vn -0.982493 0.137756 -0.125425
vn -0.382626 0.137756 -0.913576
vn 0.599867 0.137756 -0.788151
vn 0.000000 -0.032818 0.999461
vn -0.865559 -0.032818 0.499730
vn -0.865559 -0.032818 0.499731
vn -0.865559 -0.032818 -0.499731
vn -0.865559 -0.032818 -0.499731
vn 0.000000 -0.032818 -0.999461
vn 0.000000 -0.032818 -0.999461
vn 0.865559 -0.032818 -0.499730
vn 0.865559 -0.032818 -0.499731
vn 0.865559 -0.032818 0.499731
vn 0.865559 -0.032818 0.499731
vn 0.100124 -0.979745 0.173419
vn 0.000000 0.243350 -0.969938
vn 0.000000 0.243350 -0.969938
vn 0.000000 0.243350 -0.969938
vn -0.704412 0.196570 -0.682029
vn -0.735865 0.440156 -0.514554
vn -0.893048 0.449962 -0.000016
vn -0.735787 0.440243 0.514591
vn -0.735442 0.528046 0.424608
vn -0.718870 0.404826 0.565103
vn 0.000000 0.243351 0.969938
vn 0.000000 0.243351 0.969938
vn 0.000000 0.243351 0.969938
vn 0.704548 0.197460 0.681632
vn 0.735787 0.440243 0.514591
vn 0.893048 0.449962 0.000016
vn 0.735865 0.440156 -0.514553
vn 0.735442 0.528046 -0.424608
vn 0.718805 0.404536 -0.565394
vn 0.000000 -1.000000 -0.000000
vn 0.000000 -1.000000 -0.000000
vn 0.000000 -1.000000 0.000000
vn 0.000000 -1.000000 0.000000
vn 0.000000 -1.000000 0.000000
vn 0.000000 -1.000000 0.000000
vn 0.000000 -1.000000 0.000000
vn 0.000000 0.777925 -0.628357
vn -0.446124 0.696221 -0.562361
vn -0.000000 0.777925 -0.628357
vn 0.000000 0.778569 0.627559
vn 0.446420 0.696682 0.561555
vn 0.000000 0.778569 0.627559
vn -0.718805 0.404536 -0.565394
vn -0.704548 0.197460 0.681631
vn -0.893048 0.449962 0.000017
vn -0.446420 0.696682 0.561555
vn 0.704412 0.196570 -0.682029
vn 0.893048 0.449962 -0.000017
vn 0.718870 0.404826 0.565103
vn 0.446124 0.696221 -0.562361
vn 0.735442 0.528046 0.424608
vn -0.735442 0.528046 -0.424608
vn -1.000000 0.000000 0.000000
vn -1.000000 0.000000 0.000000
vn -1.000000 0.000000 0.000000
vn 0.500000 0.000000 0.866026
vn 0.500000 0.000000 0.866025
vn 0.500000 0.000000 0.866025
vn 0.500000 0.000000 -0.866025
vn 0.500000 0.000000 -0.866025
vn 0.500000 0.000000 -0.866025
vn 0.000000 -1.000000 0.000000
vn 0.000000 -1.000000 0.000000
vn 0.000000 -1.000000 0.000000
vn 0.000000 1.000000 0.000000
vn 0.000000 1.000000 0.000000
vn 0.000000 1.000000 0.000000
vn -1.000000 0.000000 0.000000
vn 0.500000 0.000000 0.866025
vn 0.500000 0.000000 -0.866025
vn 1.000000 0.000000 0.000000
vn 1.000000 0.000000 0.000000
vn 1.000000 0.000000 0.000000
vn -0.500000 0.000000 0.866025
vn -0.500000 0.000000 0.866025
vn -0.500000 0.000000 0.866026
vn -0.500000 0.000000 -0.866025
vn -0.500000 0.000000 -0.866025
vn -0.500000 0.000000 -0.866025
vn 0.000000 -1.000000 0.000000
vn 0.000000 -1.000000 0.000000
vn 0.000000 -1.000000 0.000000
vn 0.000000 1.000000 0.000000
vn 0.000000 1.000000 0.000000
vn 0.000000 1.000000 0.000000
vn -0.500000 0.000000 0.866025
vn -0.500000 0.000000 -0.866025
vn 1.000000 0.000000 0.000000
s 1
g BattleshipMissile_Mesh BattleshipMissile_Mesh_grp
usemtl lambert2SG
f 1/7/1 23/45/2 24/48/3
s 2
f 2/8/4 21/41/5 22/44/6
s 3
f 3/9/7 19/37/8 20/40/9
s 4
f 4/10/10 15/29/11 16/32/12
s 5
f 5/11/13 17/33/14 18/36/15
s 6
f 6/12/16 25/49/17 26/52/18
s 7
f 13/27/19 23/46/20 1/1/21
f 3/3/22 21/42/23 13/27/19
f 4/4/24 19/38/25 13/27/19
f 5/5/26 15/30/27 13/27/19
f 6/6/28 17/34/29 13/27/19
f 13/27/19 25/50/30 6/6/28
s 9
f 7/25/31 24/47/32 14/28/33
f 8/24/34 22/43/35 14/28/33
f 9/23/36 20/39/37 14/28/33
f 10/22/38 16/31/39 14/28/33
f 11/21/40 18/35/41 14/28/33
f 12/26/42 26/51/43 14/28/33
s 4
f 16/32/12 5/11/44 11/18/45
s 5
f 18/36/15 17/33/14 6/12/46
s 3
f 20/40/9 19/37/8 4/10/47
s 2
f 22/44/6 21/41/5 3/9/48
s 1
f 24/48/3 23/45/2 2/8/49
s 6
f 26/52/18 25/49/17 1/13/50
s 4
f 16/32/12 15/29/11 5/11/44
f 4/10/10 16/32/12 10/17/51
s 3
f 20/40/9 4/10/47 10/17/52
f 3/9/7 20/40/9 9/16/53
s 2
f 22/44/6 3/9/48 9/16/54
f 2/8/4 22/44/6 8/15/55
s 1
f 24/48/3 2/8/49 8/15/56
f 1/7/1 24/48/3 7/14/57
s 6
f 26/52/18 1/13/50 7/20/58
f 6/12/16 26/52/18 12/19/59
s 5
f 18/36/15 6/12/46 12/19/60
f 5/11/13 18/36/15 11/18/61
s 7
f 13/27/19 21/42/23 2/2/62
f 13/27/19 19/38/25 3/3/22
f 13/27/19 15/30/27 4/4/24
f 13/27/19 17/34/29 5/5/26
f 1/1/21 25/50/30 13/27/19
f 2/2/62 23/46/20 13/27/19
s 9
f 14/28/33 26/51/43 7/25/31
f 14/28/33 18/35/41 12/26/42
f 14/28/33 16/31/39 11/21/40
f 14/28/33 20/39/37 10/22/38
f 14/28/33 22/43/35 9/23/36
f 14/28/33 24/47/32 8/24/34
s off
f 27/53/63 28/54/64 33/55/65
s 14
f 40/56/66 29/57/67 34/58/68
s 15
f 29/57/69 30/59/70 35/60/71
s off
f 30/59/72 31/61/73 35/60/74
s 16
f 43/62/75 32/63/76 36/64/77
s 17
f 32/63/78 27/65/79 33/66/80
s 18
f 28/67/81 27/68/82 37/69/83
f 29/70/84 28/67/81 37/69/83
f 30/71/85 29/70/84 37/69/83
f 31/72/86 30/71/85 37/69/83
f 32/73/87 31/72/86 37/69/83
f 27/68/82 32/73/87 37/69/83
s 19
f 33/74/88 40/75/89 39/76/90
s 20
f 35/77/91 43/78/92 38/79/93
s 14
f 33/55/94 29/57/67 40/56/66
s 15
f 29/57/69 41/80/95 34/58/96
s 20
f 38/81/93 41/82/97 35/83/91
s 17
f 32/63/78 42/84/98 36/64/99
s 16
f 35/60/100 32/63/76 43/62/75
s 19
f 39/85/90 42/86/101 33/87/88
s 15
f 29/57/69 35/60/71 41/80/95
s 16
f 31/61/102 32/63/76 35/60/100
s 17
f 32/63/78 33/66/80 42/84/98
s 14
f 28/54/103 29/57/67 33/55/94
s 21
f 44/88/104 45/89/105 47/90/106
s 22
f 48/91/107 46/92/108 49/106/109
s 23
f 49/93/110 44/88/111 47/90/112
s off
f 45/89/113 44/88/114 46/105/115
f 49/107/116 47/90/117 48/91/118
s 21
f 47/90/106 45/89/105 48/91/119
s 22
f 45/89/120 46/92/108 48/91/107
s 23
f 46/104/121 44/88/111 49/93/110
s 24
f 50/94/122 54/95/123 51/96/124
s 25
f 51/96/125 54/95/126 55/97/127
s 26
f 52/98/128 53/99/129 50/94/130
s off
f 51/96/131 52/101/132 50/94/133
f 55/103/134 54/95/135 53/99/136
s 25
f 51/96/125 55/97/127 52/100/137
s 26
f 52/98/128 55/102/138 53/99/129
s 24
f 50/94/122 53/99/139 54/95/123
